<svg width="46" height="49" viewBox="0 0 46 49" fill="none" xmlns="http://www.w3.org/2000/svg">
<path d="M24.8857 44.8311C35.0165 44.8311 43.2292 36.6187 43.2292 26.4881C43.2292 16.3576 35.0165 8.1452 24.8857 8.1452C14.7548 8.1452 6.54211 16.3576 6.54211 26.4881C6.54211 36.6187 14.7548 44.8311 24.8857 44.8311Z" fill="#3D7BC2"/>
<path d="M32.6464 21.165C33.8009 21.165 34.763 20.2029 34.763 19.0485C34.763 17.894 33.8009 16.932 32.6464 16.932C31.4919 16.932 30.5298 17.894 30.5298 19.0485C30.5298 20.2029 31.4919 21.165 32.6464 21.165Z" fill="#102E5E"/>
<path d="M35.4044 32.6453C36.8795 32.6453 38.0982 31.4267 38.0982 29.9516C38.0982 28.4764 36.8795 27.2578 35.4044 27.2578C33.9292 27.2578 32.7106 28.4764 32.7106 29.9516C32.6464 31.4267 33.865 32.6453 35.4044 32.6453Z" fill="#102E5E"/>
<path d="M43.2934 27.1937C44.4479 26.873 45.3458 25.8469 45.3458 24.5641C45.3458 23.2814 44.512 22.2552 43.2934 21.9346C42.5237 15.3285 38.8037 9.62042 33.4161 6.15707L34.314 5.19503C34.6347 5.3233 35.0195 5.38743 35.4044 5.38743C36.8795 5.38743 38.0982 4.16885 38.0982 2.69372C38.0982 1.21859 36.8795 0 35.4044 0C33.9292 0 32.7105 1.21859 32.7105 2.69372C32.7105 3.20681 32.8388 3.65576 33.0954 4.10471L31.9409 5.3233C28.8622 3.65576 25.3988 2.75785 21.7429 2.75785C9.74902 2.75785 0 12.5065 0 24.5C0 36.4935 9.74902 46.2421 21.7429 46.2421C25.3988 46.2421 28.8622 45.3442 31.8767 43.7408L33.0312 44.8953C32.7747 45.2801 32.6464 45.7291 32.6464 46.2421C32.6464 47.7173 33.865 48.9359 35.3402 48.9359C36.8154 48.9359 38.034 47.7173 38.034 46.2421C38.034 44.767 36.8154 43.5484 35.3402 43.5484C34.9554 43.5484 34.5706 43.6126 34.2499 43.805L33.3519 42.8429C38.7395 39.4437 42.5237 33.7997 43.2934 27.1937ZM41.6258 21.9987C40.5996 22.3835 39.894 23.3456 39.894 24.5C39.894 25.6545 40.5996 26.6165 41.6258 27.0013C40.8561 33.1584 37.2644 38.4175 32.1974 41.5602L17.1891 25.911C17.3815 25.5262 17.5739 25.0772 17.5739 24.5641C17.5739 24.051 17.4456 23.6021 17.1891 23.1531L32.2616 7.37565C37.3285 10.5183 40.9202 15.8416 41.6258 21.9987ZM21.7429 44.5746C10.647 44.5746 1.6676 35.5956 1.6676 24.5C1.6676 13.4045 10.647 4.42539 21.7429 4.42539C24.9498 4.42539 28.0284 5.19503 30.7223 6.54189L15.9063 22.0628C15.8422 22.0628 15.778 21.9987 15.7139 21.9987V13.4686C16.8042 13.0838 17.5098 12.1217 17.5098 10.9031C17.5098 9.42801 16.2911 8.20942 14.816 8.20942C13.3408 8.20942 12.1221 9.42801 12.1221 10.9031C12.1221 12.1217 12.9559 13.1479 14.0463 13.4686V21.9346C12.9559 22.2552 12.1221 23.2814 12.1221 24.5C12.1221 25.7186 12.9559 26.7448 14.0463 27.0654V35.4673C12.9559 35.788 12.1221 36.8141 12.1221 38.0327C12.1221 39.5079 13.3408 40.7264 14.816 40.7264C16.2911 40.7264 17.5098 39.5079 17.5098 38.0327C17.5098 36.8141 16.7401 35.8521 15.7139 35.4673V27.1296C15.778 27.1296 15.8422 27.0654 15.9063 27.0654L30.6581 42.5223C27.9643 43.805 24.9498 44.5746 21.7429 44.5746Z" fill="white"/>
</svg>
