<?xml version="1.0" encoding="UTF-8"?>
<svg xmlns="http://www.w3.org/2000/svg" xmlns:xlink="http://www.w3.org/1999/xlink" width="150pt" height="150pt" viewBox="0 0 150 150" version="1.1">
<g id="surface1">
<path style=" stroke:none;fill-rule:nonzero;fill:rgb(12.54902%,16.078431%,26.666667%);fill-opacity:1;" d="M 1.199219 0 L 1.199219 150 L 148.800781 150 L 148.800781 0 Z M 52.800781 17.398438 L 66.601562 17.398438 L 66.601562 31.800781 L 52.800781 31.800781 Z M 18 17.398438 L 32.398438 17.398438 L 32.398438 31.800781 L 18 31.800781 Z M 31.800781 52.199219 L 31.800781 66.601562 L 17.398438 66.601562 L 17.398438 52.199219 Z M 28.199219 131.398438 L 22.199219 131.398438 L 22.199219 126 L 27.601562 126 L 27.601562 131.398438 Z M 32.398438 102.601562 L 18 102.601562 L 18 88.800781 L 32.398438 88.800781 Z M 63 131.398438 L 57.601562 131.398438 L 57.601562 126 L 63 126 Z M 63 97.800781 L 57.601562 97.800781 L 57.601562 92.398438 L 63 92.398438 Z M 67.199219 67.199219 L 52.800781 67.199219 L 52.800781 52.800781 L 67.199219 52.800781 Z M 97.800781 131.398438 L 92.398438 131.398438 L 92.398438 126 L 97.800781 126 Z M 97.800781 97.800781 L 92.398438 97.800781 L 92.398438 92.398438 L 97.800781 92.398438 Z M 97.800781 62.398438 L 92.398438 62.398438 L 92.398438 57 L 97.800781 57 Z M 102.601562 31.800781 L 88.199219 31.800781 L 88.199219 17.398438 L 102.601562 17.398438 Z M 133.199219 131.398438 L 127.800781 131.398438 L 127.800781 126 L 133.199219 126 Z M 133.199219 97.800781 L 127.800781 97.800781 L 127.800781 92.398438 L 133.199219 92.398438 Z M 133.199219 62.398438 L 127.800781 62.398438 L 127.800781 57 L 133.199219 57 Z M 133.199219 27.601562 L 127.800781 27.601562 L 127.800781 22.199219 L 133.199219 22.199219 Z M 133.199219 27.601562 "/>
<path style=" stroke:none;fill-rule:evenodd;fill:rgb(100%,100%,100%);fill-opacity:1;" d="M 18 17.398438 L 32.398438 17.398438 L 32.398438 31.800781 L 18 31.800781 Z M 18 17.398438 "/>
<path style=" stroke:none;fill-rule:nonzero;fill:rgb(100%,100%,100%);fill-opacity:1;" d="M 52.800781 17.398438 L 66.601562 17.398438 L 66.601562 31.800781 L 52.800781 31.800781 Z M 52.800781 17.398438 "/>
<path style=" stroke:none;fill-rule:nonzero;fill:rgb(100%,100%,100%);fill-opacity:1;" d="M 88.199219 17.398438 L 102.601562 17.398438 L 102.601562 31.800781 L 88.199219 31.800781 Z M 88.199219 17.398438 "/>
<path style=" stroke:none;fill-rule:nonzero;fill:rgb(100%,100%,100%);fill-opacity:1;" d="M 127.800781 22.199219 L 133.199219 22.199219 L 133.199219 27.601562 L 127.800781 27.601562 Z M 127.800781 22.199219 "/>
<path style=" stroke:none;fill-rule:nonzero;fill:rgb(100%,100%,100%);fill-opacity:1;" d="M 17.398438 52.199219 L 31.800781 52.199219 L 31.800781 66.601562 L 17.398438 66.601562 Z M 17.398438 52.199219 "/>
<path style=" stroke:none;fill-rule:nonzero;fill:rgb(100%,100%,100%);fill-opacity:1;" d="M 52.800781 52.800781 L 67.199219 52.800781 L 67.199219 67.199219 L 52.800781 67.199219 Z M 52.800781 52.800781 "/>
<path style=" stroke:none;fill-rule:nonzero;fill:rgb(100%,100%,100%);fill-opacity:1;" d="M 92.398438 57 L 97.800781 57 L 97.800781 62.398438 L 92.398438 62.398438 Z M 92.398438 57 "/>
<path style=" stroke:none;fill-rule:nonzero;fill:rgb(100%,100%,100%);fill-opacity:1;" d="M 127.800781 57 L 133.199219 57 L 133.199219 62.398438 L 127.800781 62.398438 Z M 127.800781 57 "/>
<path style=" stroke:none;fill-rule:nonzero;fill:rgb(100%,100%,100%);fill-opacity:1;" d="M 18 88.800781 L 32.398438 88.800781 L 32.398438 102.601562 L 18 102.601562 Z M 18 88.800781 "/>
<path style=" stroke:none;fill-rule:nonzero;fill:rgb(100%,100%,100%);fill-opacity:1;" d="M 57.601562 92.398438 L 63 92.398438 L 63 97.800781 L 57.601562 97.800781 Z M 57.601562 92.398438 "/>
<path style=" stroke:none;fill-rule:nonzero;fill:rgb(100%,100%,100%);fill-opacity:1;" d="M 92.398438 92.398438 L 97.800781 92.398438 L 97.800781 97.800781 L 92.398438 97.800781 Z M 92.398438 92.398438 "/>
<path style=" stroke:none;fill-rule:nonzero;fill:rgb(100%,100%,100%);fill-opacity:1;" d="M 127.800781 92.398438 L 133.199219 92.398438 L 133.199219 97.800781 L 127.800781 97.800781 Z M 127.800781 92.398438 "/>
<path style=" stroke:none;fill-rule:nonzero;fill:rgb(100%,100%,100%);fill-opacity:1;" d="M 22.199219 126 L 27.601562 126 L 27.601562 131.398438 L 22.199219 131.398438 Z M 22.199219 126 "/>
<path style=" stroke:none;fill-rule:nonzero;fill:rgb(100%,100%,100%);fill-opacity:1;" d="M 57.601562 126 L 63 126 L 63 131.398438 L 57.601562 131.398438 Z M 57.601562 126 "/>
<path style=" stroke:none;fill-rule:nonzero;fill:rgb(100%,100%,100%);fill-opacity:1;" d="M 92.398438 126 L 97.800781 126 L 97.800781 131.398438 L 92.398438 131.398438 Z M 92.398438 126 "/>
<path style=" stroke:none;fill-rule:nonzero;fill:rgb(100%,100%,100%);fill-opacity:1;" d="M 127.800781 126 L 133.199219 126 L 133.199219 131.398438 L 127.800781 131.398438 Z M 127.800781 126 "/>
</g>
</svg>
