<?xml version="1.0" encoding="UTF-8"?>
<svg xmlns="http://www.w3.org/2000/svg" xmlns:xlink="http://www.w3.org/1999/xlink" width="150pt" height="165pt" viewBox="0 0 150 165" version="1.1">
<defs>
<filter id="alpha" filterUnits="objectBoundingBox" x="0%" y="0%" width="100%" height="100%">
  <feColorMatrix type="matrix" in="SourceGraphic" values="0 0 0 0 1 0 0 0 0 1 0 0 0 0 1 0 0 0 1 0"/>
</filter>
<mask id="mask0">
  <g filter="url(#alpha)">
<rect x="0" y="0" width="150" height="165" style="fill:rgb(0%,0%,0%);fill-opacity:0.2;stroke:none;"/>
  </g>
</mask>
<clipPath id="clip1">
  <rect x="0" y="0" width="150" height="165"/>
</clipPath>
<g id="surface5" clip-path="url(#clip1)">
<path style=" stroke:none;fill-rule:nonzero;fill:rgb(100%,33.72549%,30.980392%);fill-opacity:1;" d="M 14.886719 137.472656 L 24.121094 165 L 87.496094 82.5 L 24.121094 0 L 14.4375 26.929688 L 56.535156 82.484375 Z M 14.886719 137.472656 "/>
</g>
</defs>
<g id="surface1">
<use xlink:href="#surface5" mask="url(#mask0)"/>
<path style=" stroke:none;fill-rule:nonzero;fill:rgb(94.117647%,50.588235%,47.45098%);fill-opacity:1;" d="M 149.976562 164.984375 L 119.902344 164.984375 L 56.511719 82.484375 L 119.902344 0 L 149.976562 0 L 87.480469 82.484375 Z M 149.976562 164.984375 "/>
<path style=" stroke:none;fill-rule:nonzero;fill:rgb(100%,33.72549%,30.980392%);fill-opacity:1;" d="M 0 0 L 24.105469 0 L 24.105469 164.984375 L 0 164.984375 Z M 0 0 "/>
<path style=" stroke:none;fill-rule:nonzero;fill:rgb(100%,33.72549%,30.980392%);fill-opacity:1;" d="M 150 164.984375 L 119.925781 164.984375 L 56.535156 82.484375 L 119.925781 0 L 150 0 L 87.503906 82.484375 Z M 150 164.984375 "/>
<path style=" stroke:none;fill-rule:nonzero;fill:rgb(100%,33.72549%,30.980392%);fill-opacity:1;" d="M 150 164.984375 L 119.925781 164.984375 L 56.535156 82.484375 L 119.925781 0 L 150 0 L 87.503906 82.484375 Z M 150 164.984375 "/>
<path style=" stroke:none;fill-rule:nonzero;fill:rgb(100%,33.72549%,30.980392%);fill-opacity:1;" d="M 150 164.984375 L 119.925781 164.984375 L 56.535156 82.484375 L 119.925781 0 L 150 0 L 87.503906 82.484375 Z M 150 164.984375 "/>
<path style=" stroke:none;fill-rule:nonzero;fill:rgb(100%,33.72549%,30.980392%);fill-opacity:1;" d="M 150 164.984375 L 119.925781 164.984375 L 56.535156 82.484375 L 119.925781 0 L 150 0 L 87.503906 82.484375 Z M 150 164.984375 "/>
</g>
</svg>
