<?xml version="1.0" encoding="UTF-8"?>
<svg xmlns="http://www.w3.org/2000/svg" xmlns:xlink="http://www.w3.org/1999/xlink" width="150pt" height="170pt" viewBox="0 0 150 170" version="1.1">
<g id="surface1">
<path style=" stroke:none;fill-rule:nonzero;fill:rgb(92.941176%,42.745098%,32.941176%);fill-opacity:1;" d="M 121.480469 42.527344 C 113.234375 32.945312 103.015625 24.554688 92.863281 18.058594 C 67.328125 1.722656 40.78125 -4.339844 28.320312 3.308594 C 22.285156 7.011719 17.726562 14.207031 14.539062 25.238281 C 5.195312 35.6875 0.546875 57.820312 0.0351562 93.820312 C -0.496094 131.132812 5.097656 154.648438 16.667969 163.714844 C 22.003906 167.894531 29.921875 169.96875 39.351562 169.96875 C 50.144531 169.96875 62.925781 167.25 76.078125 161.867188 C 77.054688 161.464844 78.003906 161.058594 78.949219 160.648438 C 84.691406 159.242188 90.320312 157.40625 95.789062 155.160156 C 132.246094 140.234375 147.527344 116.566406 149.671875 99.390625 C 152.300781 78.335938 138.785156 57.988281 121.480469 42.527344 Z M 37.585938 155.480469 C 35.578125 153.851562 33.835938 151.917969 32.429688 149.75 C 36.902344 151.40625 42.242188 152.234375 48.1875 152.234375 C 58.984375 152.234375 71.761719 149.519531 84.914062 144.132812 C 103.40625 136.5625 116.441406 126.742188 125.085938 116.660156 C 119.214844 130.976562 104.78125 147.273438 78.183594 158.855469 C 60.90625 163.035156 45.871094 161.972656 37.585938 155.480469 Z M 84.167969 142.332031 C 62.777344 151.085938 42.5625 152.679688 30.699219 146.886719 C 24.328125 135.117188 21.300781 115.128906 21.699219 87.144531 C 22.203125 51.914062 26.839844 29.738281 35.824219 19.726562 C 48.867188 20.386719 66.085938 26.628906 82.972656 37.433594 C 106.964844 52.78125 131.402344 78.816406 128.023438 105.855469 C 127.789062 107.65625 127.433594 109.441406 126.949219 111.195312 C 118.6875 122.472656 104.953125 133.824219 84.167969 142.332031 Z M 20.511719 22.699219 C 23.796875 20.683594 28.171875 19.726562 33.277344 19.6875 C 24.582031 30.5625 20.242188 52.386719 19.746094 87.117188 C 19.371094 113.359375 22.039062 132.742188 27.675781 145.109375 C 27.355469 144.886719 27.011719 144.6875 26.710938 144.449219 C 15.648438 135.78125 10.304688 112.789062 10.828125 76.117188 C 11.132812 54.699219 12.964844 38.109375 16.375 26.136719 C 17.589844 24.808594 18.980469 23.652344 20.511719 22.699219 Z M 84.027344 35.792969 C 67.625 25.300781 50.828125 19.074219 37.59375 17.96875 C 38.410156 17.234375 39.289062 16.574219 40.21875 15.996094 C 43.574219 13.9375 48.039062 12.945312 53.28125 12.945312 C 66.550781 12.945312 84.8125 19.296875 102.683594 30.726562 C 108.832031 34.660156 114.664062 39.070312 120.117188 43.917969 C 131.390625 57.050781 138.820312 72.414062 136.859375 88.121094 C 136.144531 93.835938 133.914062 100.300781 129.839844 106.914062 C 129.882812 106.640625 129.929688 106.363281 129.960938 106.09375 C 133.453125 78.160156 108.523438 51.460938 84.027344 35.792969 Z M 29.347656 4.964844 C 32.703125 2.90625 37.164062 1.917969 42.40625 1.917969 C 55.679688 1.917969 73.9375 8.265625 91.808594 19.699219 C 97.773438 23.511719 103.433594 27.777344 108.746094 32.449219 C 107.082031 31.28125 105.414062 30.164062 103.742188 29.089844 C 78.203125 12.753906 51.660156 6.6875 39.195312 14.335938 C 37.636719 15.304688 36.207031 16.464844 34.9375 17.789062 C 28.710938 17.59375 23.398438 18.636719 19.484375 21.042969 C 18.8125 21.460938 18.160156 21.914062 17.539062 22.40625 C 20.492188 13.78125 24.414062 7.992188 29.347656 4.964844 Z M 17.878906 162.183594 C 6.8125 153.511719 1.46875 130.519531 1.992188 93.847656 C 2.4375 62.59375 6.136719 41.617188 13.238281 30.289062 C 10.574219 41.898438 9.144531 57.046875 8.871094 76.089844 C 8.339844 113.398438 13.933594 136.914062 25.503906 145.980469 C 26.699219 146.894531 27.976562 147.695312 29.324219 148.367188 C 31.359375 152.003906 33.699219 154.910156 36.378906 157.007812 C 41.714844 161.191406 49.628906 163.265625 59.0625 163.265625 C 62.214844 163.246094 65.367188 163.03125 68.492188 162.617188 C 47.125 169.941406 27.734375 169.90625 17.878906 162.183594 Z M 147.730469 99.152344 C 145.652344 115.78125 130.722656 138.753906 95.046875 153.359375 C 93.214844 154.109375 91.398438 154.789062 89.589844 155.433594 C 112.953125 142.597656 124.851562 125.945312 128.746094 112.027344 C 134.742188 103.746094 137.90625 95.492188 138.800781 88.359375 C 140.328125 76.132812 136.40625 64.140625 129.460938 53.207031 C 141.582031 66.710938 149.78125 82.746094 147.730469 99.152344 Z M 147.730469 99.152344 "/>
</g>
</svg>
