<?xml version="1.0" encoding="UTF-8"?>
<svg xmlns="http://www.w3.org/2000/svg" xmlns:xlink="http://www.w3.org/1999/xlink" width="150pt" height="150pt" viewBox="0 0 150 150" version="1.1">
<defs>
<linearGradient id="linear0" gradientUnits="userSpaceOnUse" x1="16.6207" y1="41.2544" x2="16.6207" y2="6" gradientTransform="matrix(3.125,0,0,3.125,0,0)">
<stop offset="0" style="stop-color:rgb(0%,17.647059%,45.490196%);stop-opacity:0;"/>
<stop offset="1" style="stop-color:rgb(0%,17.647059%,45.490196%);stop-opacity:1;"/>
</linearGradient>
<linearGradient id="linear1" gradientUnits="userSpaceOnUse" x1="31.8626" y1="41.2211" x2="31.8626" y2="6" gradientTransform="matrix(3.125,0,0,3.125,0,0)">
<stop offset="0" style="stop-color:rgb(0%,17.647059%,45.490196%);stop-opacity:1;"/>
<stop offset="1" style="stop-color:rgb(0%,17.647059%,45.490196%);stop-opacity:0;"/>
</linearGradient>
</defs>
<g id="surface1">
<path style=" stroke:none;fill-rule:nonzero;fill:rgb(100%,100%,100%);fill-opacity:1;" d="M 150 75 C 150 116.421875 116.421875 150 75 150 C 33.578125 150 0 116.421875 0 75 C 0 33.578125 33.578125 0 75 0 C 116.421875 0 150 33.578125 150 75 Z M 150 75 "/>
<path style=" stroke:none;fill-rule:nonzero;fill:rgb(0%,17.647059%,45.490196%);fill-opacity:1;" d="M 75.753906 18.75 L 28.125 46.390625 L 28.125 101.421875 L 75.753906 129.0625 L 123.382812 101.421875 L 123.382812 46.390625 Z M 109.316406 93.277344 L 75.753906 112.527344 L 42.191406 93.277344 L 42.191406 54.535156 L 75.753906 35.039062 L 109.316406 54.535156 Z M 109.316406 93.277344 "/>
<path style=" stroke:none;fill-rule:nonzero;fill:url(#linear0);" d="M 75.753906 35.039062 L 75.753906 18.75 L 28.125 46.390625 L 28.125 101.421875 L 75.753906 129.0625 L 75.753906 112.527344 L 42.191406 93.277344 L 42.191406 54.535156 Z M 75.753906 35.039062 "/>
<path style=" stroke:none;fill-rule:nonzero;fill:url(#linear1);" d="M 75.753906 112.527344 L 75.753906 128.816406 L 123.382812 101.175781 L 123.382812 46.390625 L 75.753906 18.75 L 75.753906 35.039062 L 109.316406 54.285156 L 109.316406 93.03125 Z M 75.753906 112.527344 "/>
<path style=" stroke:none;fill-rule:nonzero;fill:rgb(0%,17.647059%,45.490196%);fill-opacity:1;" d="M 98.210938 86.617188 L 75.753906 99.449219 L 53.542969 86.617188 L 53.542969 60.949219 L 75.753906 48.117188 L 98.210938 60.949219 Z M 98.210938 86.617188 "/>
</g>
</svg>
