<?xml version="1.0" encoding="UTF-8"?>
<svg xmlns="http://www.w3.org/2000/svg" xmlns:xlink="http://www.w3.org/1999/xlink" width="48pt" height="54pt" viewBox="0 0 48 54" version="1.1">
<g id="surface1">
<path style=" stroke:none;fill-rule:nonzero;fill:rgb(92.941176%,42.745098%,32.941176%);fill-opacity:1;" d="M 38.875 13.507812 C 36.234375 10.464844 32.964844 7.800781 29.714844 5.738281 C 21.542969 0.546875 13.050781 -1.378906 9.0625 1.050781 C 7.132812 2.226562 5.671875 4.511719 4.652344 8.015625 C 1.664062 11.335938 0.175781 18.367188 0.0117188 29.800781 C -0.160156 41.652344 1.632812 49.125 5.332031 52.003906 C 7.042969 53.332031 9.574219 53.992188 12.59375 53.992188 C 16.046875 53.992188 20.136719 53.125 24.34375 51.417969 C 24.65625 51.289062 24.960938 51.160156 25.265625 51.027344 C 27.101562 50.582031 28.902344 50 30.652344 49.285156 C 42.320312 44.546875 47.207031 37.027344 47.894531 31.570312 C 48.738281 24.882812 44.410156 18.417969 38.875 13.507812 Z M 12.027344 49.386719 C 11.382812 48.871094 10.828125 48.257812 10.378906 47.566406 C 11.808594 48.09375 13.515625 48.355469 15.421875 48.355469 C 18.875 48.355469 22.964844 47.492188 27.171875 45.785156 C 33.089844 43.378906 37.261719 40.257812 40.027344 37.054688 C 38.148438 41.605469 33.53125 46.78125 25.019531 50.460938 C 19.488281 51.789062 14.679688 51.449219 12.027344 49.386719 Z M 26.933594 45.210938 C 20.089844 47.992188 13.621094 48.5 9.824219 46.65625 C 7.785156 42.917969 6.816406 36.570312 6.945312 27.683594 C 7.105469 16.492188 8.589844 9.445312 11.464844 6.265625 C 15.636719 6.476562 21.148438 8.460938 26.550781 11.890625 C 34.230469 16.765625 42.046875 25.035156 40.96875 33.625 C 40.894531 34.195312 40.777344 34.761719 40.625 35.320312 C 37.980469 38.902344 33.585938 42.507812 26.933594 45.210938 Z M 6.5625 7.210938 C 7.613281 6.570312 9.015625 6.265625 10.648438 6.253906 C 7.867188 9.707031 6.476562 16.640625 6.320312 27.671875 C 6.199219 36.007812 7.054688 42.164062 8.855469 46.09375 C 8.753906 46.023438 8.644531 45.960938 8.546875 45.882812 C 5.007812 43.128906 3.296875 35.828125 3.464844 24.179688 C 3.5625 17.375 4.148438 12.105469 5.238281 8.300781 C 5.628906 7.878906 6.074219 7.511719 6.5625 7.210938 Z M 26.890625 11.371094 C 21.640625 8.035156 16.265625 6.058594 12.03125 5.707031 C 12.289062 5.476562 12.570312 5.265625 12.871094 5.082031 C 13.945312 4.425781 15.371094 4.113281 17.050781 4.113281 C 21.296875 4.113281 27.140625 6.128906 32.859375 9.761719 C 34.828125 11.011719 36.691406 12.410156 38.4375 13.949219 C 42.042969 18.121094 44.421875 23.003906 43.792969 27.992188 C 43.566406 29.808594 42.851562 31.859375 41.550781 33.960938 C 41.5625 33.875 41.578125 33.785156 41.589844 33.699219 C 42.707031 24.828125 34.726562 16.347656 26.890625 11.371094 Z M 9.390625 1.578125 C 10.464844 0.921875 11.890625 0.609375 13.570312 0.609375 C 17.816406 0.609375 23.660156 2.625 29.378906 6.257812 C 31.285156 7.46875 33.097656 8.824219 34.796875 10.308594 C 34.265625 9.9375 33.730469 9.582031 33.195312 9.242188 C 25.023438 4.050781 16.53125 2.125 12.542969 4.554688 C 12.042969 4.863281 11.585938 5.230469 11.179688 5.652344 C 9.1875 5.589844 7.488281 5.921875 6.234375 6.683594 C 6.019531 6.816406 5.8125 6.960938 5.613281 7.117188 C 6.558594 4.378906 7.8125 2.539062 9.390625 1.578125 Z M 5.722656 51.519531 C 2.179688 48.761719 0.46875 41.460938 0.636719 29.8125 C 0.78125 19.882812 1.964844 13.21875 4.238281 9.621094 C 3.382812 13.308594 2.925781 18.121094 2.839844 24.167969 C 2.667969 36.019531 4.460938 43.492188 8.160156 46.371094 C 8.542969 46.660156 8.953125 46.914062 9.382812 47.128906 C 10.035156 48.285156 10.785156 49.207031 11.640625 49.875 C 13.347656 51.203125 15.882812 51.859375 18.898438 51.859375 C 19.910156 51.855469 20.917969 51.785156 21.917969 51.652344 C 15.078125 53.980469 8.875 53.96875 5.722656 51.519531 Z M 47.273438 31.496094 C 46.609375 36.777344 41.832031 44.074219 30.414062 48.714844 C 29.828125 48.953125 29.246094 49.167969 28.667969 49.371094 C 36.144531 45.296875 39.953125 40.007812 41.199219 35.585938 C 43.117188 32.953125 44.128906 30.332031 44.414062 28.066406 C 44.90625 24.183594 43.652344 20.375 41.429688 16.902344 C 45.304688 21.191406 47.929688 26.285156 47.273438 31.496094 Z M 47.273438 31.496094 "/>
</g>
</svg>
