<?xml version="1.0" encoding="UTF-8"?>
<svg xmlns="http://www.w3.org/2000/svg" xmlns:xlink="http://www.w3.org/1999/xlink" width="48pt" height="48pt" viewBox="0 0 48 48" version="1.1">
<g id="surface1">
<path style=" stroke:none;fill-rule:nonzero;fill:rgb(12.54902%,16.078431%,26.666667%);fill-opacity:1;" d="M 0.382812 0 L 0.382812 48 L 47.617188 48 L 47.617188 0 Z M 16.894531 5.566406 L 21.3125 5.566406 L 21.3125 10.175781 L 16.894531 10.175781 Z M 5.761719 5.566406 L 10.367188 5.566406 L 10.367188 10.175781 L 5.761719 10.175781 Z M 10.175781 16.703125 L 10.175781 21.3125 L 5.566406 21.3125 L 5.566406 16.703125 Z M 9.023438 42.046875 L 7.105469 42.046875 L 7.105469 40.320312 L 8.832031 40.320312 L 8.832031 42.046875 Z M 10.367188 32.832031 L 5.761719 32.832031 L 5.761719 28.414062 L 10.367188 28.414062 Z M 20.160156 42.046875 L 18.433594 42.046875 L 18.433594 40.320312 L 20.160156 40.320312 Z M 20.160156 31.296875 L 18.433594 31.296875 L 18.433594 29.566406 L 20.160156 29.566406 Z M 21.503906 21.503906 L 16.894531 21.503906 L 16.894531 16.894531 L 21.503906 16.894531 Z M 31.296875 42.046875 L 29.566406 42.046875 L 29.566406 40.320312 L 31.296875 40.320312 Z M 31.296875 31.296875 L 29.566406 31.296875 L 29.566406 29.566406 L 31.296875 29.566406 Z M 31.296875 19.96875 L 29.566406 19.96875 L 29.566406 18.238281 L 31.296875 18.238281 Z M 32.832031 10.175781 L 28.222656 10.175781 L 28.222656 5.566406 L 32.832031 5.566406 Z M 42.625 42.046875 L 40.894531 42.046875 L 40.894531 40.320312 L 42.625 40.320312 Z M 42.625 31.296875 L 40.894531 31.296875 L 40.894531 29.566406 L 42.625 29.566406 Z M 42.625 19.96875 L 40.894531 19.96875 L 40.894531 18.238281 L 42.625 18.238281 Z M 42.625 8.832031 L 40.894531 8.832031 L 40.894531 7.105469 L 42.625 7.105469 Z M 42.625 8.832031 "/>
<path style=" stroke:none;fill-rule:evenodd;fill:rgb(100%,100%,100%);fill-opacity:1;" d="M 5.761719 5.566406 L 10.367188 5.566406 L 10.367188 10.175781 L 5.761719 10.175781 Z M 5.761719 5.566406 "/>
<path style=" stroke:none;fill-rule:nonzero;fill:rgb(100%,100%,100%);fill-opacity:1;" d="M 16.894531 5.566406 L 21.3125 5.566406 L 21.3125 10.175781 L 16.894531 10.175781 Z M 16.894531 5.566406 "/>
<path style=" stroke:none;fill-rule:nonzero;fill:rgb(100%,100%,100%);fill-opacity:1;" d="M 28.222656 5.566406 L 32.832031 5.566406 L 32.832031 10.175781 L 28.222656 10.175781 Z M 28.222656 5.566406 "/>
<path style=" stroke:none;fill-rule:nonzero;fill:rgb(100%,100%,100%);fill-opacity:1;" d="M 40.894531 7.105469 L 42.625 7.105469 L 42.625 8.832031 L 40.894531 8.832031 Z M 40.894531 7.105469 "/>
<path style=" stroke:none;fill-rule:nonzero;fill:rgb(100%,100%,100%);fill-opacity:1;" d="M 5.566406 16.703125 L 10.175781 16.703125 L 10.175781 21.3125 L 5.566406 21.3125 Z M 5.566406 16.703125 "/>
<path style=" stroke:none;fill-rule:nonzero;fill:rgb(100%,100%,100%);fill-opacity:1;" d="M 16.894531 16.894531 L 21.503906 16.894531 L 21.503906 21.503906 L 16.894531 21.503906 Z M 16.894531 16.894531 "/>
<path style=" stroke:none;fill-rule:nonzero;fill:rgb(100%,100%,100%);fill-opacity:1;" d="M 29.566406 18.238281 L 31.296875 18.238281 L 31.296875 19.96875 L 29.566406 19.96875 Z M 29.566406 18.238281 "/>
<path style=" stroke:none;fill-rule:nonzero;fill:rgb(100%,100%,100%);fill-opacity:1;" d="M 40.894531 18.238281 L 42.625 18.238281 L 42.625 19.96875 L 40.894531 19.96875 Z M 40.894531 18.238281 "/>
<path style=" stroke:none;fill-rule:nonzero;fill:rgb(100%,100%,100%);fill-opacity:1;" d="M 5.761719 28.414062 L 10.367188 28.414062 L 10.367188 32.832031 L 5.761719 32.832031 Z M 5.761719 28.414062 "/>
<path style=" stroke:none;fill-rule:nonzero;fill:rgb(100%,100%,100%);fill-opacity:1;" d="M 18.433594 29.566406 L 20.160156 29.566406 L 20.160156 31.296875 L 18.433594 31.296875 Z M 18.433594 29.566406 "/>
<path style=" stroke:none;fill-rule:nonzero;fill:rgb(100%,100%,100%);fill-opacity:1;" d="M 29.566406 29.566406 L 31.296875 29.566406 L 31.296875 31.296875 L 29.566406 31.296875 Z M 29.566406 29.566406 "/>
<path style=" stroke:none;fill-rule:nonzero;fill:rgb(100%,100%,100%);fill-opacity:1;" d="M 40.894531 29.566406 L 42.625 29.566406 L 42.625 31.296875 L 40.894531 31.296875 Z M 40.894531 29.566406 "/>
<path style=" stroke:none;fill-rule:nonzero;fill:rgb(100%,100%,100%);fill-opacity:1;" d="M 7.105469 40.320312 L 8.832031 40.320312 L 8.832031 42.046875 L 7.105469 42.046875 Z M 7.105469 40.320312 "/>
<path style=" stroke:none;fill-rule:nonzero;fill:rgb(100%,100%,100%);fill-opacity:1;" d="M 18.433594 40.320312 L 20.160156 40.320312 L 20.160156 42.046875 L 18.433594 42.046875 Z M 18.433594 40.320312 "/>
<path style=" stroke:none;fill-rule:nonzero;fill:rgb(100%,100%,100%);fill-opacity:1;" d="M 29.566406 40.320312 L 31.296875 40.320312 L 31.296875 42.046875 L 29.566406 42.046875 Z M 29.566406 40.320312 "/>
<path style=" stroke:none;fill-rule:nonzero;fill:rgb(100%,100%,100%);fill-opacity:1;" d="M 40.894531 40.320312 L 42.625 40.320312 L 42.625 42.046875 L 40.894531 42.046875 Z M 40.894531 40.320312 "/>
</g>
</svg>
