<?xml version="1.0" encoding="UTF-8"?>
<svg xmlns="http://www.w3.org/2000/svg" xmlns:xlink="http://www.w3.org/1999/xlink" width="150pt" height="150pt" viewBox="0 0 150 150" version="1.1">
<defs>
<filter id="alpha" filterUnits="objectBoundingBox" x="0%" y="0%" width="100%" height="100%">
  <feColorMatrix type="matrix" in="SourceGraphic" values="0 0 0 0 1 0 0 0 0 1 0 0 0 0 1 0 0 0 1 0"/>
</filter>
<mask id="mask0">
  <g filter="url(#alpha)">
<rect x="0" y="0" width="150" height="150" style="fill:rgb(0%,0%,0%);fill-opacity:0.301961;stroke:none;"/>
  </g>
</mask>
<clipPath id="clip1">
  <rect width="150" height="150"/>
</clipPath>
<g id="surface6" clip-path="url(#clip1)">
<path style="fill-rule:nonzero;fill:rgb(100%,100%,100%);fill-opacity:1;stroke-width:0.1;stroke-linecap:butt;stroke-linejoin:miter;stroke:rgb(100%,100%,100%);stroke-opacity:1;stroke-miterlimit:4;" d="M 10.285 20.975052 L 10.285 19.541042 C 10.521042 19.561094 10.758802 19.57026 11 19.57026 C 11.240052 19.57026 11.478958 19.559948 11.713854 19.541042 L 11.713854 20.975052 C 11.47724 20.99224 11.238906 21.00026 11 21.00026 C 10.759948 21.00026 10.522187 20.99224 10.285 20.975052 Z M 16.532083 17.54099 C 16.895885 17.23276 17.23276 16.89474 17.54099 16.530938 L 18.556771 17.547865 C 18.402083 17.72776 18.238802 17.900781 18.069792 18.069792 C 17.900208 18.238802 17.727187 18.400938 17.547865 18.556771 Z M 3.931927 18.069792 C 3.761771 17.900208 3.600208 17.727187 3.443802 17.547865 L 4.460156 16.530938 C 4.767812 16.89474 5.105833 17.23276 5.470208 17.54099 L 4.452135 18.556771 C 4.27224 18.402083 4.098073 18.239948 3.929063 18.069792 Z M 19.543906 11.713854 C 19.563958 11.477813 19.574271 11.240052 19.574271 10.998854 C 19.574271 10.758229 19.563958 10.521042 19.545052 10.285 L 20.979063 10.285 C 20.992812 10.521042 21.00026 10.758802 21.00026 11 C 21.00026 11.240052 20.99224 11.478958 20.975052 11.715 Z M 1.027813 11.713854 C 1.008906 11.47724 0.99974 11.238906 0.99974 11 C 0.99974 10.759948 1.00776 10.52276 1.024948 10.286146 L 2.458958 10.286146 C 2.438906 10.522187 2.42974 10.759948 2.42974 11 C 2.42974 11.241198 2.440052 11.478958 2.460104 11.715 Z M 3.442083 4.452135 C 3.596771 4.27224 3.760052 4.099219 3.930208 3.930208 C 4.099792 3.761198 4.273958 3.599063 4.453281 3.442083 L 5.467917 4.456719 C 5.104115 4.764948 4.766094 5.102969 4.457865 5.466771 Z M 16.532083 4.457865 L 17.547865 3.442083 C 17.727187 3.597917 17.900781 3.761198 18.070937 3.930208 C 18.241094 4.099792 18.403229 4.272812 18.557917 4.452135 L 17.542135 5.466771 C 17.233906 5.102969 16.895885 4.766094 16.532083 4.457865 Z M 10.285 1.024948 C 10.522187 1.00776 10.759948 0.99974 11 0.99974 C 11.240052 0.99974 11.477813 1.00776 11.713854 1.024948 L 11.713854 2.45724 C 11.478958 2.437187 11.241198 2.428021 11 2.428021 C 10.759948 2.428021 10.521042 2.43776 10.285 2.457813 Z M 10.285 1.024948 " transform="matrix(6.818182,0,0,6.818182,0,0)"/>
</g>
<radialGradient id="radial0" gradientUnits="userSpaceOnUse" cx="0" cy="0" fx="0" fy="0" r="1" gradientTransform="matrix(25.844045,0,0,25.844045,108.606818,44.373886)">
<stop offset="0" style="stop-color:rgb(100%,91.764706%,100%);stop-opacity:0.6;"/>
<stop offset="0.681" style="stop-color:rgb(62.745098%,52.941176%,78.823529%);stop-opacity:1;"/>
<stop offset="1" style="stop-color:rgb(6.27451%,0%,18.431373%);stop-opacity:1;"/>
</radialGradient>
<radialGradient id="radial1" gradientUnits="userSpaceOnUse" cx="0" cy="0" fx="0" fy="0" r="1" gradientTransform="matrix(63.231068,0,0,63.231068,94.227955,55.382045)">
<stop offset="0" style="stop-color:rgb(100%,91.764706%,100%);stop-opacity:0.6;"/>
<stop offset="0.681" style="stop-color:rgb(62.745098%,52.941176%,78.823529%);stop-opacity:1;"/>
<stop offset="1" style="stop-color:rgb(6.27451%,0%,18.431373%);stop-opacity:1;"/>
</radialGradient>
<mask id="mask1">
  <g filter="url(#alpha)">
<rect x="0" y="0" width="150" height="150" style="fill:rgb(0%,0%,0%);fill-opacity:0.6;stroke:none;"/>
  </g>
</mask>
<clipPath id="clip2">
  <rect width="150" height="150"/>
</clipPath>
<g id="surface9" clip-path="url(#clip2)">
<path style=" stroke:none;fill-rule:nonzero;fill:rgb(66.27451%,52.54902%,59.607843%);fill-opacity:1;" d="M 107.023438 45.355469 C 102.628906 40.730469 98.925781 39.519531 94.480469 38.535156 C 91.003906 37.71875 91.929688 35.753906 96.148438 36.164062 C 94.132812 35.46875 92.222656 35.289062 90.832031 35.585938 C 88.058594 36.164062 87.246094 40.382812 87.941406 42 C 88.226562 42.640625 88.867188 43.566406 89.734375 44.605469 C 88.171875 45.640625 86.84375 46.398438 85.746094 46.976562 C 86.261719 47.210938 86.90625 47.496094 87.65625 47.898438 C 89.617188 48.941406 91.757812 50.671875 91.757812 50.671875 C 88.519531 47.898438 89.214844 46.628906 93.667969 43.507812 C 95.050781 42.523438 97.59375 42.632812 99.96875 43.847656 C 102.339844 45.066406 105.117188 48.128906 105.117188 48.128906 L 102.457031 53.222656 L 102.976562 53.394531 C 104.652344 53.855469 105.980469 53.734375 107.023438 53.332031 C 108.238281 52.582031 111.414062 50.039062 107.023438 45.355469 Z M 107.023438 45.355469 "/>
</g>
<mask id="mask2">
  <g filter="url(#alpha)">
<rect x="0" y="0" width="150" height="150" style="fill:rgb(0%,0%,0%);fill-opacity:0.6;stroke:none;"/>
  </g>
</mask>
<linearGradient id="linear0" gradientUnits="userSpaceOnUse" x1="9.921" y1="16.065" x2="11.437" y2="6.71" gradientTransform="matrix(6.818182,0,0,6.818182,0,0)">
<stop offset="0" style="stop-color:rgb(50.588235%,100%,100%);stop-opacity:1;"/>
<stop offset="0.62" style="stop-color:rgb(100%,100%,100%);stop-opacity:0;"/>
</linearGradient>
<clipPath id="clip3">
  <rect width="150" height="150"/>
</clipPath>
<g id="surface12" clip-path="url(#clip3)">
<path style=" stroke:none;fill-rule:nonzero;fill:url(#linear0);" d="M 72.824219 109.992188 C 90.683594 109.992188 105.148438 95.515625 105.148438 77.664062 C 105.148438 59.816406 90.675781 45.347656 72.832031 45.347656 C 54.976562 45.347656 40.5 59.816406 40.5 77.664062 C 40.5 95.515625 54.976562 109.984375 72.824219 109.984375 Z M 72.824219 109.992188 "/>
</g>
<mask id="mask3">
  <g filter="url(#alpha)">
<rect x="0" y="0" width="150" height="150" style="fill:rgb(0%,0%,0%);fill-opacity:0.6;stroke:none;"/>
  </g>
</mask>
<clipPath id="clip4">
  <rect width="150" height="150"/>
</clipPath>
<g id="surface15" clip-path="url(#clip4)">
<path style=" stroke:none;fill-rule:nonzero;fill:rgb(66.27451%,52.54902%,59.607843%);fill-opacity:1;" d="M 72.605469 106.058594 C 54.96875 103.226562 43.003906 86.625 45.894531 68.992188 C 47.160156 61.1875 51.09375 54.539062 56.644531 49.738281 C 48.550781 54.421875 42.53125 62.578125 40.914062 72.519531 C 38.085938 90.15625 50.050781 106.753906 67.628906 109.589844 C 77.460938 111.203125 86.945312 108.144531 93.949219 102.128906 C 87.757812 105.710938 80.242188 107.269531 72.605469 106.058594 Z M 72.605469 106.058594 "/>
</g>
<mask id="mask4">
  <g filter="url(#alpha)">
<rect x="0" y="0" width="150" height="150" style="fill:rgb(0%,0%,0%);fill-opacity:0.6;stroke:none;"/>
  </g>
</mask>
<linearGradient id="linear1" gradientUnits="userSpaceOnUse" x1="14.022" y1="8.176" x2="10.102" y2="11.773" gradientTransform="matrix(6.818182,0,0,6.818182,0,0)">
<stop offset="0.289" style="stop-color:rgb(100%,100%,100%);stop-opacity:1;"/>
<stop offset="0.78" style="stop-color:rgb(100%,100%,100%);stop-opacity:0;"/>
</linearGradient>
<clipPath id="clip5">
  <rect width="150" height="150"/>
</clipPath>
<g id="surface18" clip-path="url(#clip5)">
<path style=" stroke:none;fill-rule:nonzero;fill:url(#linear1);" d="M 77.972656 45.839844 C 69.816406 44.507812 61.894531 46.355469 55.417969 50.460938 L 55.1875 50.691406 C 57.675781 49.191406 61.324219 47.855469 61.324219 47.855469 C 51.949219 53.296875 49.058594 59.480469 49.058594 59.480469 C 52.703125 52.433594 63.394531 47.453125 71.78125 47.113281 C 80.167969 46.773438 85.664062 49.253906 92.371094 54.632812 C 99.074219 60.066406 103.125 71.167969 102.722656 79.957031 C 102.375 88.753906 97.746094 95.863281 97.746094 95.863281 C 100.929688 91.753906 102.832031 88.753906 104.050781 85.683594 C 104.285156 84.757812 104.507812 83.835938 104.625 82.847656 C 107.515625 65.269531 95.605469 48.675781 77.964844 45.84375 Z M 77.972656 45.839844 "/>
</g>
<linearGradient id="linear2" gradientUnits="userSpaceOnUse" x1="6.178" y1="13.593" x2="15.187" y2="13.593" gradientTransform="matrix(6.818182,0,0,6.818182,0,0)">
<stop offset="0" style="stop-color:rgb(0%,0.784314%,91.372549%);stop-opacity:1;"/>
<stop offset="0.995" style="stop-color:rgb(100%,0%,78.039216%);stop-opacity:1;"/>
</linearGradient>
<mask id="mask5">
  <g filter="url(#alpha)">
<rect x="0" y="0" width="150" height="150" style="fill:rgb(0%,0%,0%);fill-opacity:0.6;stroke:none;"/>
  </g>
</mask>
<linearGradient id="linear3" gradientUnits="userSpaceOnUse" x1="15.608" y1="11.739" x2="10.704" y2="16.373" gradientTransform="matrix(6.818182,0,0,6.818182,0,0)">
<stop offset="0.289" style="stop-color:rgb(100%,100%,100%);stop-opacity:1;"/>
<stop offset="0.78" style="stop-color:rgb(100%,100%,100%);stop-opacity:0;"/>
</linearGradient>
<clipPath id="clip6">
  <rect width="150" height="150"/>
</clipPath>
<g id="surface21" clip-path="url(#clip6)">
<path style=" stroke:none;fill-rule:nonzero;fill:url(#linear3);" d="M 101.09375 77.34375 C 101.09375 93.878906 88.023438 107.414062 71.605469 108.046875 L 72.816406 108.046875 C 89.761719 108.046875 103.519531 94.289062 103.519531 77.34375 Z M 101.09375 77.34375 "/>
</g>
<mask id="mask6">
  <g filter="url(#alpha)">
<rect x="0" y="0" width="150" height="150" style="fill:rgb(0%,0%,0%);fill-opacity:0.701961;stroke:none;"/>
  </g>
</mask>
<linearGradient id="linear4" gradientUnits="userSpaceOnUse" x1="6.176" y1="13.593" x2="10.996" y2="13.593" gradientTransform="matrix(6.818182,0,0,6.818182,0,0)">
<stop offset="0" style="stop-color:rgb(0%,0.784314%,57.254902%);stop-opacity:1;"/>
<stop offset="0.995" style="stop-color:rgb(49.019608%,0%,78.039216%);stop-opacity:1;"/>
</linearGradient>
<clipPath id="clip7">
  <rect width="150" height="150"/>
</clipPath>
<g id="surface24" clip-path="url(#clip7)">
<path style=" stroke:none;fill-rule:nonzero;fill:url(#linear4);" d="M 46.417969 77.34375 L 42.082031 77.34375 C 42.082031 94.289062 55.839844 108.046875 72.785156 108.046875 C 73.535156 108.046875 74.230469 108.046875 74.925781 107.992188 C 59.023438 106.835938 46.425781 93.539062 46.425781 77.34375 Z M 46.417969 77.34375 "/>
</g>
<linearGradient id="linear5" gradientUnits="userSpaceOnUse" x1="6.183" y1="11.765" x2="15.18" y2="11.765" gradientTransform="matrix(6.818182,0,0,6.818182,0,0)">
<stop offset="0" style="stop-color:rgb(0%,0.784314%,57.254902%);stop-opacity:1;"/>
<stop offset="0.995" style="stop-color:rgb(74.509804%,0%,78.039216%);stop-opacity:1;"/>
</linearGradient>
<mask id="mask7">
  <g filter="url(#alpha)">
<rect x="0" y="0" width="150" height="150" style="fill:rgb(0%,0%,0%);fill-opacity:0.6;stroke:none;"/>
  </g>
</mask>
<linearGradient id="linear6" gradientUnits="userSpaceOnUse" x1="15.033" y1="6.937" x2="14.386" y2="7.988" gradientTransform="matrix(6.818182,0,0,6.818182,0,0)">
<stop offset="0.289" style="stop-color:rgb(100%,100%,100%);stop-opacity:1;"/>
<stop offset="0.78" style="stop-color:rgb(100%,100%,100%);stop-opacity:0;"/>
</linearGradient>
<clipPath id="clip8">
  <rect width="150" height="150"/>
</clipPath>
<g id="surface27" clip-path="url(#clip8)">
<path style=" stroke:none;fill-rule:nonzero;fill:url(#linear6);" d="M 99.28125 53.707031 L 99.164062 53.707031 C 98.824219 53.652344 98.589844 53.304688 98.644531 52.902344 C 99.164062 50.242188 101.367188 47.691406 101.480469 47.585938 C 101.714844 47.289062 102.171875 47.289062 102.402344 47.515625 C 102.695312 47.753906 102.695312 48.21875 102.464844 48.449219 C 102.402344 48.503906 100.382812 50.878906 99.921875 53.1875 C 99.859375 53.53125 99.574219 53.707031 99.28125 53.707031 Z M 99.28125 53.707031 "/>
</g>
<mask id="mask8">
  <g filter="url(#alpha)">
<rect x="0" y="0" width="150" height="150" style="fill:rgb(0%,0%,0%);fill-opacity:0.2;stroke:none;"/>
  </g>
</mask>
<clipPath id="clip9">
  <rect width="150" height="150"/>
</clipPath>
<g id="surface30" clip-path="url(#clip9)">
<path style=" stroke:none;fill-rule:nonzero;fill:rgb(100%,100%,100%);fill-opacity:1;" d="M 70.683594 101.808594 C 71.578125 101.808594 72.308594 101.078125 72.308594 100.1875 C 72.308594 99.300781 71.578125 98.570312 70.683594 98.570312 C 69.796875 98.570312 69.066406 99.292969 69.066406 100.1875 C 69.066406 101.085938 69.789062 101.808594 70.683594 101.808594 Z M 70.683594 101.808594 "/>
</g>
<mask id="mask9">
  <g filter="url(#alpha)">
<rect x="0" y="0" width="150" height="150" style="fill:rgb(0%,0%,0%);fill-opacity:0.4;stroke:none;"/>
  </g>
</mask>
<mask id="mask10">
  <g filter="url(#alpha)">
<rect x="0" y="0" width="150" height="150" style="fill:rgb(0%,0%,0%);fill-opacity:0.6;stroke:none;"/>
  </g>
</mask>
<linearGradient id="linear7" gradientUnits="userSpaceOnUse" x1="10.129" y1="14.693" x2="10.488" y2="14.693" gradientTransform="matrix(6.818182,0,0,6.818182,0,0)">
<stop offset="0.289" style="stop-color:rgb(100%,100%,100%);stop-opacity:1;"/>
<stop offset="0.78" style="stop-color:rgb(100%,100%,100%);stop-opacity:0;"/>
</linearGradient>
<clipPath id="clip11">
  <rect width="150" height="150"/>
</clipPath>
<g id="surface34" clip-path="url(#clip11)">
<path style=" stroke:none;fill-rule:nonzero;fill:url(#linear7);" d="M 69.769531 101.175781 C 69.128906 100.535156 69.128906 99.496094 69.769531 98.855469 C 69.886719 98.742188 70.003906 98.6875 70.113281 98.570312 C 69.886719 98.632812 69.710938 98.742188 69.539062 98.910156 C 68.90625 99.550781 68.90625 100.59375 69.539062 101.230469 C 70.058594 101.753906 70.867188 101.863281 71.503906 101.523438 C 70.921875 101.753906 70.234375 101.632812 69.769531 101.175781 Z M 69.769531 101.175781 "/>
</g>
<clipPath id="clip10">
  <rect width="150" height="150"/>
</clipPath>
<g id="surface36" clip-path="url(#clip10)">
<use xlink:href="#surface34" mask="url(#mask10)"/>
</g>
<mask id="mask11">
  <g filter="url(#alpha)">
<rect x="0" y="0" width="150" height="150" style="fill:rgb(0%,0%,0%);fill-opacity:0.301961;stroke:none;"/>
  </g>
</mask>
<clipPath id="clip12">
  <rect width="150" height="150"/>
</clipPath>
<g id="surface39" clip-path="url(#clip12)">
<path style=" stroke:none;fill-rule:nonzero;fill:rgb(100%,100%,100%);fill-opacity:1;" d="M 71.285156 99.714844 C 71.476562 99.714844 71.625 99.558594 71.625 99.375 C 71.625 99.175781 71.476562 99.019531 71.285156 99.019531 C 71.09375 99.019531 70.9375 99.175781 70.9375 99.367188 C 70.9375 99.558594 71.09375 99.714844 71.277344 99.714844 Z M 71.285156 99.714844 "/>
</g>
<mask id="mask12">
  <g filter="url(#alpha)">
<rect x="0" y="0" width="150" height="150" style="fill:rgb(0%,0%,0%);fill-opacity:0.2;stroke:none;"/>
  </g>
</mask>
<clipPath id="clip13">
  <rect width="150" height="150"/>
</clipPath>
<g id="surface42" clip-path="url(#clip13)">
<path style=" stroke:none;fill-rule:nonzero;fill:rgb(100%,100%,100%);fill-opacity:1;" d="M 79.152344 100.929688 C 80.039062 100.929688 80.769531 100.207031 80.769531 99.3125 C 80.769531 98.414062 80.046875 97.691406 79.152344 97.691406 C 78.253906 97.691406 77.53125 98.421875 77.53125 99.3125 C 77.53125 100.199219 78.253906 100.929688 79.144531 100.929688 Z M 79.152344 100.929688 "/>
</g>
<mask id="mask13">
  <g filter="url(#alpha)">
<rect x="0" y="0" width="150" height="150" style="fill:rgb(0%,0%,0%);fill-opacity:0.4;stroke:none;"/>
  </g>
</mask>
<mask id="mask14">
  <g filter="url(#alpha)">
<rect x="0" y="0" width="150" height="150" style="fill:rgb(0%,0%,0%);fill-opacity:0.6;stroke:none;"/>
  </g>
</mask>
<linearGradient id="linear8" gradientUnits="userSpaceOnUse" x1="11.366" y1="14.578" x2="11.725" y2="14.578" gradientTransform="matrix(6.818182,0,0,6.818182,0,0)">
<stop offset="0.289" style="stop-color:rgb(100%,100%,100%);stop-opacity:1;"/>
<stop offset="0.78" style="stop-color:rgb(100%,100%,100%);stop-opacity:0;"/>
</linearGradient>
<clipPath id="clip15">
  <rect width="150" height="150"/>
</clipPath>
<g id="surface46" clip-path="url(#clip15)">
<path style=" stroke:none;fill-rule:nonzero;fill:url(#linear8);" d="M 78.210938 100.398438 C 77.578125 99.761719 77.578125 98.71875 78.210938 98.085938 C 78.328125 97.96875 78.441406 97.914062 78.558594 97.800781 C 78.328125 97.855469 78.148438 97.96875 77.980469 98.140625 C 77.34375 98.78125 77.34375 99.824219 77.980469 100.460938 C 78.503906 100.976562 79.308594 101.09375 79.949219 100.746094 C 79.371094 100.976562 78.675781 100.863281 78.210938 100.40625 Z M 78.210938 100.398438 "/>
</g>
<clipPath id="clip14">
  <rect width="150" height="150"/>
</clipPath>
<g id="surface48" clip-path="url(#clip14)">
<use xlink:href="#surface46" mask="url(#mask14)"/>
</g>
<mask id="mask15">
  <g filter="url(#alpha)">
<rect x="0" y="0" width="150" height="150" style="fill:rgb(0%,0%,0%);fill-opacity:0.301961;stroke:none;"/>
  </g>
</mask>
<clipPath id="clip16">
  <rect width="150" height="150"/>
</clipPath>
<g id="surface51" clip-path="url(#clip16)">
<path style=" stroke:none;fill-rule:nonzero;fill:rgb(100%,100%,100%);fill-opacity:1;" d="M 79.691406 98.863281 C 79.882812 98.863281 80.03125 98.707031 80.03125 98.523438 C 80.03125 98.324219 79.882812 98.167969 79.691406 98.167969 C 79.492188 98.167969 79.34375 98.324219 79.34375 98.515625 C 79.34375 98.707031 79.492188 98.863281 79.683594 98.863281 Z M 79.691406 98.863281 "/>
</g>
<mask id="mask16">
  <g filter="url(#alpha)">
<rect x="0" y="0" width="150" height="150" style="fill:rgb(0%,0%,0%);fill-opacity:0.2;stroke:none;"/>
  </g>
</mask>
<clipPath id="clip17">
  <rect width="150" height="150"/>
</clipPath>
<g id="surface54" clip-path="url(#clip17)">
<path style=" stroke:none;fill-rule:nonzero;fill:rgb(100%,100%,100%);fill-opacity:1;" d="M 74.964844 104.699219 C 75.632812 104.699219 76.179688 104.15625 76.179688 103.488281 C 76.179688 102.816406 75.632812 102.273438 74.964844 102.273438 C 74.289062 102.273438 73.746094 102.816406 73.746094 103.488281 C 73.746094 104.15625 74.289062 104.699219 74.960938 104.699219 Z M 74.964844 104.699219 "/>
</g>
<mask id="mask17">
  <g filter="url(#alpha)">
<rect x="0" y="0" width="150" height="150" style="fill:rgb(0%,0%,0%);fill-opacity:0.4;stroke:none;"/>
  </g>
</mask>
<mask id="mask18">
  <g filter="url(#alpha)">
<rect x="0" y="0" width="150" height="150" style="fill:rgb(0%,0%,0%);fill-opacity:0.6;stroke:none;"/>
  </g>
</mask>
<linearGradient id="linear9" gradientUnits="userSpaceOnUse" x1="10.816" y1="15.187" x2="11.086" y2="15.187" gradientTransform="matrix(6.818182,0,0,6.818182,0,0)">
<stop offset="0.289" style="stop-color:rgb(100%,100%,100%);stop-opacity:1;"/>
<stop offset="0.78" style="stop-color:rgb(100%,100%,100%);stop-opacity:0;"/>
</linearGradient>
<clipPath id="clip19">
  <rect width="150" height="150"/>
</clipPath>
<g id="surface58" clip-path="url(#clip19)">
<path style=" stroke:none;fill-rule:nonzero;fill:url(#linear9);" d="M 74.277344 104.289062 C 73.8125 103.828125 73.8125 103.015625 74.277344 102.550781 C 74.332031 102.496094 74.449219 102.4375 74.507812 102.382812 C 74.332031 102.4375 74.214844 102.550781 74.101562 102.667969 C 73.636719 103.132812 73.636719 103.941406 74.101562 104.40625 C 74.507812 104.808594 75.082031 104.863281 75.601562 104.578125 C 75.144531 104.746094 74.625 104.632812 74.277344 104.289062 Z M 74.277344 104.289062 "/>
</g>
<clipPath id="clip18">
  <rect width="150" height="150"/>
</clipPath>
<g id="surface60" clip-path="url(#clip18)">
<use xlink:href="#surface58" mask="url(#mask18)"/>
</g>
<mask id="mask19">
  <g filter="url(#alpha)">
<rect x="0" y="0" width="150" height="150" style="fill:rgb(0%,0%,0%);fill-opacity:0.301961;stroke:none;"/>
  </g>
</mask>
<clipPath id="clip20">
  <rect width="150" height="150"/>
</clipPath>
<g id="surface63" clip-path="url(#clip20)">
<path style=" stroke:none;fill-rule:nonzero;fill:rgb(100%,100%,100%);fill-opacity:1;" d="M 75.363281 103.136719 C 75.496094 103.136719 75.59375 103.03125 75.59375 102.90625 C 75.59375 102.769531 75.492188 102.675781 75.363281 102.675781 C 75.238281 102.675781 75.128906 102.777344 75.128906 102.90625 C 75.128906 103.03125 75.238281 103.136719 75.363281 103.136719 Z M 75.363281 103.136719 "/>
</g>
<mask id="mask20">
  <g filter="url(#alpha)">
<rect x="0" y="0" width="150" height="150" style="fill:rgb(0%,0%,0%);fill-opacity:0.2;stroke:none;"/>
  </g>
</mask>
<clipPath id="clip21">
  <rect width="150" height="150"/>
</clipPath>
<g id="surface66" clip-path="url(#clip21)">
<path style=" stroke:none;fill-rule:nonzero;fill:rgb(100%,100%,100%);fill-opacity:1;" d="M 82.4375 103.847656 C 83.113281 103.847656 83.652344 103.300781 83.652344 102.632812 C 83.652344 101.964844 83.105469 101.421875 82.4375 101.421875 C 81.769531 101.421875 81.226562 101.964844 81.226562 102.632812 C 81.226562 103.300781 81.769531 103.847656 82.4375 103.847656 Z M 82.4375 103.847656 "/>
</g>
<mask id="mask21">
  <g filter="url(#alpha)">
<rect x="0" y="0" width="150" height="150" style="fill:rgb(0%,0%,0%);fill-opacity:0.4;stroke:none;"/>
  </g>
</mask>
<mask id="mask22">
  <g filter="url(#alpha)">
<rect x="0" y="0" width="150" height="150" style="fill:rgb(0%,0%,0%);fill-opacity:0.6;stroke:none;"/>
  </g>
</mask>
<linearGradient id="linear10" gradientUnits="userSpaceOnUse" x1="11.909" y1="15.058" x2="12.179" y2="15.058" gradientTransform="matrix(6.818182,0,0,6.818182,0,0)">
<stop offset="0.289" style="stop-color:rgb(100%,100%,100%);stop-opacity:1;"/>
<stop offset="0.78" style="stop-color:rgb(100%,100%,100%);stop-opacity:0;"/>
</linearGradient>
<clipPath id="clip23">
  <rect width="150" height="150"/>
</clipPath>
<g id="surface70" clip-path="url(#clip23)">
<path style=" stroke:none;fill-rule:nonzero;fill:url(#linear10);" d="M 81.75 103.410156 C 81.292969 102.949219 81.292969 102.136719 81.75 101.671875 C 81.8125 101.617188 81.925781 101.558594 81.980469 101.503906 C 81.8125 101.558594 81.695312 101.671875 81.574219 101.789062 C 81.117188 102.253906 81.117188 103.0625 81.574219 103.527344 C 81.980469 103.929688 82.5625 103.984375 83.078125 103.699219 C 82.621094 103.867188 82.097656 103.753906 81.75 103.410156 Z M 81.75 103.410156 "/>
</g>
<clipPath id="clip22">
  <rect width="150" height="150"/>
</clipPath>
<g id="surface72" clip-path="url(#clip22)">
<use xlink:href="#surface70" mask="url(#mask22)"/>
</g>
<mask id="mask23">
  <g filter="url(#alpha)">
<rect x="0" y="0" width="150" height="150" style="fill:rgb(0%,0%,0%);fill-opacity:0.301961;stroke:none;"/>
  </g>
</mask>
<clipPath id="clip24">
  <rect width="150" height="150"/>
</clipPath>
<g id="surface75" clip-path="url(#clip24)">
<path style=" stroke:none;fill-rule:nonzero;fill:rgb(100%,100%,100%);fill-opacity:1;" d="M 82.820312 102.257812 C 82.949219 102.257812 83.050781 102.148438 83.050781 102.027344 C 83.050781 101.890625 82.949219 101.796875 82.820312 101.796875 C 82.699219 101.796875 82.589844 101.898438 82.589844 102.027344 C 82.589844 102.148438 82.699219 102.257812 82.820312 102.257812 Z M 82.820312 102.257812 "/>
</g>
<mask id="mask24">
  <g filter="url(#alpha)">
<rect x="0" y="0" width="150" height="150" style="fill:rgb(0%,0%,0%);fill-opacity:0.2;stroke:none;"/>
  </g>
</mask>
<clipPath id="clip25">
  <rect width="150" height="150"/>
</clipPath>
<g id="surface78" clip-path="url(#clip25)">
<path style=" stroke:none;fill-rule:nonzero;fill:rgb(100%,100%,100%);fill-opacity:1;" d="M 63.816406 101.203125 C 65.285156 101.203125 66.476562 100.007812 66.476562 98.542969 C 66.476562 97.070312 65.285156 95.882812 63.816406 95.882812 C 62.34375 95.882812 61.160156 97.070312 61.160156 98.542969 C 61.160156 100.007812 62.34375 101.203125 63.816406 101.203125 Z M 63.816406 101.203125 "/>
</g>
<mask id="mask25">
  <g filter="url(#alpha)">
<rect x="0" y="0" width="150" height="150" style="fill:rgb(0%,0%,0%);fill-opacity:0.4;stroke:none;"/>
  </g>
</mask>
<mask id="mask26">
  <g filter="url(#alpha)">
<rect x="0" y="0" width="150" height="150" style="fill:rgb(0%,0%,0%);fill-opacity:0.6;stroke:none;"/>
  </g>
</mask>
<linearGradient id="linear11" gradientUnits="userSpaceOnUse" x1="8.966" y1="14.466" x2="9.552" y2="14.466" gradientTransform="matrix(6.818182,0,0,6.818182,0,0)">
<stop offset="0.289" style="stop-color:rgb(100%,100%,100%);stop-opacity:1;"/>
<stop offset="0.78" style="stop-color:rgb(100%,100%,100%);stop-opacity:0;"/>
</linearGradient>
<clipPath id="clip27">
  <rect width="150" height="150"/>
</clipPath>
<g id="surface82" clip-path="url(#clip27)">
<path style=" stroke:none;fill-rule:nonzero;fill:url(#linear11);" d="M 62.285156 100.242188 C 61.242188 99.203125 61.242188 97.527344 62.285156 96.492188 C 62.453125 96.3125 62.625 96.199219 62.863281 96.082031 C 62.523438 96.199219 62.230469 96.421875 61.9375 96.660156 C 60.898438 97.699219 60.898438 99.375 61.9375 100.410156 C 62.800781 101.285156 64.132812 101.460938 65.175781 100.820312 C 64.191406 101.230469 63.035156 101.050781 62.285156 100.242188 Z M 62.285156 100.242188 "/>
</g>
<clipPath id="clip26">
  <rect width="150" height="150"/>
</clipPath>
<g id="surface84" clip-path="url(#clip26)">
<use xlink:href="#surface82" mask="url(#mask26)"/>
</g>
<mask id="mask27">
  <g filter="url(#alpha)">
<rect x="0" y="0" width="150" height="150" style="fill:rgb(0%,0%,0%);fill-opacity:0.301961;stroke:none;"/>
  </g>
</mask>
<clipPath id="clip28">
  <rect width="150" height="150"/>
</clipPath>
<g id="surface87" clip-path="url(#clip28)">
<path style=" stroke:none;fill-rule:nonzero;fill:rgb(100%,100%,100%);fill-opacity:1;" d="M 64.726562 97.703125 C 65.046875 97.703125 65.304688 97.445312 65.304688 97.125 C 65.304688 96.804688 65.046875 96.546875 64.726562 96.546875 C 64.40625 96.546875 64.144531 96.804688 64.144531 97.125 C 64.144531 97.445312 64.40625 97.703125 64.726562 97.703125 Z M 64.726562 97.703125 "/>
</g>
<mask id="mask28">
  <g filter="url(#alpha)">
<rect x="0" y="0" width="150" height="150" style="fill:rgb(0%,0%,0%);fill-opacity:0.2;stroke:none;"/>
  </g>
</mask>
<clipPath id="clip29">
  <rect width="150" height="150"/>
</clipPath>
<g id="surface90" clip-path="url(#clip29)">
<path style=" stroke:none;fill-rule:nonzero;fill:rgb(100%,100%,100%);fill-opacity:1;" d="M 87.546875 94.675781 C 89.019531 94.675781 90.203125 93.484375 90.203125 92.019531 C 90.203125 90.546875 89.019531 89.359375 87.546875 89.359375 C 86.078125 89.359375 84.886719 90.546875 84.886719 92.019531 C 84.886719 93.484375 86.078125 94.675781 87.546875 94.675781 Z M 87.546875 94.675781 "/>
</g>
<mask id="mask29">
  <g filter="url(#alpha)">
<rect x="0" y="0" width="150" height="150" style="fill:rgb(0%,0%,0%);fill-opacity:0.4;stroke:none;"/>
  </g>
</mask>
<mask id="mask30">
  <g filter="url(#alpha)">
<rect x="0" y="0" width="150" height="150" style="fill:rgb(0%,0%,0%);fill-opacity:0.6;stroke:none;"/>
  </g>
</mask>
<linearGradient id="linear12" gradientUnits="userSpaceOnUse" x1="12.449" y1="13.499" x2="13.035" y2="13.499" gradientTransform="matrix(6.818182,0,0,6.818182,0,0)">
<stop offset="0.289" style="stop-color:rgb(100%,100%,100%);stop-opacity:1;"/>
<stop offset="0.78" style="stop-color:rgb(100%,100%,100%);stop-opacity:0;"/>
</linearGradient>
<clipPath id="clip31">
  <rect width="150" height="150"/>
</clipPath>
<g id="surface94" clip-path="url(#clip31)">
<path style=" stroke:none;fill-rule:nonzero;fill:url(#linear12);" d="M 86.011719 93.65625 C 84.96875 92.613281 84.96875 90.933594 86.011719 89.890625 C 86.183594 89.71875 86.351562 89.605469 86.585938 89.488281 C 86.242188 89.605469 85.949219 89.828125 85.664062 90.066406 C 84.621094 91.105469 84.621094 92.78125 85.664062 93.824219 C 86.53125 94.691406 87.859375 94.867188 88.902344 94.234375 C 87.921875 94.636719 86.816406 94.460938 86.011719 93.65625 Z M 86.011719 93.65625 "/>
</g>
<clipPath id="clip30">
  <rect width="150" height="150"/>
</clipPath>
<g id="surface96" clip-path="url(#clip30)">
<use xlink:href="#surface94" mask="url(#mask30)"/>
</g>
<mask id="mask31">
  <g filter="url(#alpha)">
<rect x="0" y="0" width="150" height="150" style="fill:rgb(0%,0%,0%);fill-opacity:0.301961;stroke:none;"/>
  </g>
</mask>
<clipPath id="clip32">
  <rect width="150" height="150"/>
</clipPath>
<g id="surface99" clip-path="url(#clip32)">
<path style=" stroke:none;fill-rule:nonzero;fill:rgb(100%,100%,100%);fill-opacity:1;" d="M 88.527344 91.21875 C 88.847656 91.21875 89.105469 90.960938 89.105469 90.640625 C 89.105469 90.320312 88.847656 90.0625 88.527344 90.0625 C 88.207031 90.0625 87.949219 90.320312 87.949219 90.640625 C 87.949219 90.960938 88.207031 91.21875 88.527344 91.21875 Z M 88.527344 91.21875 "/>
</g>
</defs>
<g id="surface1">
<path style=" stroke:none;fill-rule:nonzero;fill:rgb(100%,100%,100%);fill-opacity:1;" d="M 74.796875 135.953125 C 108.574219 135.953125 135.953125 108.574219 135.953125 74.796875 C 135.953125 41.019531 108.574219 13.636719 74.796875 13.636719 C 41.019531 13.636719 13.636719 41.019531 13.636719 74.796875 C 13.636719 108.574219 41.019531 135.953125 74.796875 135.953125 Z M 74.796875 135.953125 "/>
<path style=" stroke:none;fill-rule:nonzero;fill:rgb(36.862745%,7.058824%,62.745098%);fill-opacity:1;" d="M 74.769531 143.183594 C 61.335938 143.183594 48.191406 139.199219 37.015625 131.726562 C 25.839844 124.269531 17.132812 113.660156 11.992188 101.238281 C 6.84375 88.820312 5.503906 75.15625 8.128906 61.976562 C 10.746094 48.789062 17.214844 36.683594 26.71875 27.183594 C 33.007812 20.773438 40.507812 15.675781 48.777344 12.183594 C 57.039062 8.6875 65.925781 6.867188 74.90625 6.816406 C 83.878906 6.777344 92.773438 8.515625 101.085938 11.933594 C 109.382812 15.339844 116.925781 20.371094 123.28125 26.71875 C 129.621094 33.066406 134.652344 40.609375 138.074219 48.914062 C 141.484375 57.21875 143.222656 66.117188 143.183594 75.09375 C 143.140625 84.066406 141.320312 92.953125 137.824219 101.222656 C 134.332031 109.492188 129.230469 116.988281 122.824219 123.273438 C 116.53125 129.605469 109.035156 134.625 100.792969 138.039062 C 92.542969 141.464844 83.699219 143.210938 74.773438 143.1875 Z M 74.769531 16.976562 C 63.253906 16.976562 51.996094 20.398438 42.414062 26.796875 C 32.835938 33.199219 25.371094 42.292969 20.960938 52.9375 C 16.554688 63.574219 15.402344 75.285156 17.644531 86.585938 C 19.894531 97.882812 25.4375 108.265625 33.585938 116.40625 C 41.726562 124.554688 52.105469 130.097656 63.402344 132.347656 C 74.699219 134.597656 86.414062 133.4375 97.058594 129.035156 C 107.691406 124.628906 116.796875 117.171875 123.199219 107.585938 C 129.601562 98.011719 133.015625 86.746094 133.015625 75.230469 C 132.996094 59.789062 126.859375 44.980469 115.9375 34.0625 C 105.019531 23.140625 90.210938 16.996094 74.769531 16.984375 Z M 74.769531 16.976562 "/>
<use xlink:href="#surface6" mask="url(#mask0)"/>
<path style=" stroke:none;fill-rule:nonzero;fill:rgb(36.862745%,7.058824%,62.745098%);fill-opacity:1;" d="M 111.300781 47.507812 C 110.488281 44.441406 107.890625 41.378906 103.207031 37.96875 C 99.441406 35.25 95.453125 33.6875 92.277344 33.6875 C 91.636719 33.6875 91.0625 33.75 90.484375 33.867188 C 89.039062 34.152344 87.761719 35.195312 86.953125 36.757812 C 85.96875 38.605469 85.738281 41.09375 86.378906 42.59375 C 86.613281 43.058594 86.898438 43.636719 87.246094 44.160156 C 84.175781 46.003906 82.445312 46.527344 82.214844 46.589844 C 90.191406 49.246094 96.84375 54.796875 101.003906 62.023438 L 101.066406 61.328125 C 101.238281 59.421875 101.816406 57.226562 102.628906 54.96875 C 103.4375 55.199219 104.242188 55.316406 105.054688 55.316406 C 107.195312 55.316406 109.042969 54.449219 110.203125 52.886719 C 111.363281 51.328125 111.816406 49.246094 111.292969 47.507812 Z M 111.300781 47.507812 "/>
<path style=" stroke:none;fill-rule:nonzero;fill:url(#radial0);" d="M 102.953125 53.339844 C 108.21875 54.785156 110.359375 50.734375 109.664062 48.019531 C 108.914062 45.292969 106.480469 42.523438 102.203125 39.402344 C 97.921875 36.28125 93.585938 35.003906 90.8125 35.585938 C 88.035156 36.164062 87.226562 40.382812 87.921875 42 C 88.207031 42.640625 88.847656 43.566406 89.714844 44.605469 C 88.617188 45.355469 87.574219 45.933594 86.707031 46.453125 C 92.023438 48.824219 96.648438 52.527344 100.117188 57.15625 C 100.527344 55.589844 101.105469 54.203125 101.617188 52.992188 C 102.027344 53.046875 102.492188 53.160156 102.953125 53.332031 Z M 102.953125 53.339844 "/>
<path style=" stroke:none;fill-rule:nonzero;fill:url(#radial1);" d="M 72.824219 109.992188 C 90.683594 109.992188 105.148438 95.515625 105.148438 77.664062 C 105.148438 59.816406 90.675781 45.347656 72.832031 45.347656 C 54.976562 45.347656 40.5 59.816406 40.5 77.664062 C 40.5 95.515625 54.976562 109.984375 72.824219 109.984375 Z M 72.824219 109.992188 "/>
<use xlink:href="#surface9" mask="url(#mask1)"/>
<path style=" stroke:none;fill-rule:nonzero;fill:rgb(36.862745%,7.058824%,62.745098%);fill-opacity:1;" d="M 94.390625 41.316406 C 95.550781 41.789062 97.050781 42.59375 98.898438 43.808594 C 101.101562 45.253906 103.007812 46.875 104.214844 48.144531 C 102.199219 50.800781 100.867188 54.449219 100.058594 56.992188 C 100.464844 57.574219 100.921875 58.152344 101.324219 58.730469 C 101.734375 57.28125 102.429688 55.144531 103.351562 53.003906 C 103.582031 53.058594 103.875 53.058594 104.167969 53.058594 C 104.851562 53.058594 105.667969 52.941406 106.300781 52.425781 C 106.765625 52.078125 107.285156 51.441406 107.230469 50.285156 C 107.230469 49.1875 106.355469 47.800781 104.570312 46.125 C 103.296875 44.90625 101.5625 43.574219 99.824219 42.363281 C 94.847656 39.066406 91.382812 38.140625 89.824219 39.703125 C 88.78125 40.746094 88.894531 42.019531 89.242188 42.941406 C 87.394531 44.15625 85.835938 45.019531 84.789062 45.601562 C 85.488281 45.832031 86.121094 46.125 86.816406 46.410156 C 88.664062 45.429688 91.324219 43.753906 94.382812 41.324219 L 94.390625 41.324219 Z M 105.320312 49.589844 C 105.492188 49.882812 105.550781 50.167969 105.550781 50.339844 C 105.550781 50.863281 105.375 51.035156 105.257812 51.15625 C 105.027344 51.328125 104.5625 51.441406 104.167969 51.441406 C 104.507812 50.746094 104.917969 50.167969 105.320312 49.589844 Z M 91.035156 40.976562 C 91.214844 40.800781 91.671875 40.683594 92.425781 40.800781 C 91.847656 41.261719 91.269531 41.671875 90.6875 42.074219 C 90.632812 41.664062 90.6875 41.261719 91.035156 40.976562 Z M 91.035156 40.976562 "/>
<path style=" stroke:none;fill-rule:nonzero;fill:rgb(36.862745%,7.058824%,62.745098%);fill-opacity:1;" d="M 72.832031 43.4375 C 53.917969 43.4375 38.605469 58.765625 38.605469 77.664062 C 38.605469 96.578125 53.925781 111.898438 72.832031 111.898438 C 91.738281 111.898438 107.058594 96.578125 107.058594 77.671875 C 107.058594 58.765625 91.683594 43.445312 72.832031 43.445312 Z M 72.832031 109.996094 C 54.96875 109.996094 40.507812 95.542969 40.507812 77.671875 C 40.507812 59.808594 54.960938 45.347656 72.824219 45.347656 C 90.695312 45.347656 105.15625 59.800781 105.15625 77.664062 C 105.15625 95.535156 90.632812 109.996094 72.832031 109.996094 Z M 72.832031 109.996094 "/>
<use xlink:href="#surface12" mask="url(#mask2)"/>
<use xlink:href="#surface15" mask="url(#mask3)"/>
<use xlink:href="#surface18" mask="url(#mask4)"/>
<path style=" stroke:none;fill-rule:nonzero;fill:url(#linear2);" d="M 103.5625 77.34375 C 103.5625 94.289062 89.800781 108.046875 72.859375 108.046875 C 55.914062 108.046875 42.09375 94.289062 42.09375 77.34375 Z M 103.5625 77.34375 "/>
<use xlink:href="#surface21" mask="url(#mask5)"/>
<use xlink:href="#surface24" mask="url(#mask6)"/>
<path style=" stroke:none;fill-rule:nonzero;fill:url(#linear5);" d="M 103.5 77.660156 C 103.5 74.140625 97.371094 72.117188 89.214844 71.421875 C 83.316406 70.957031 77.367188 71.535156 70.535156 73.617188 C 64.644531 75.355469 59.324219 75.0625 55.445312 74.597656 C 46.835938 73.617188 42.089844 73.507812 42.089844 77.664062 C 42.089844 83.679688 54.347656 91.191406 72.738281 88.59375 C 82.050781 87.265625 86.851562 84.546875 92.339844 82.699219 C 98.296875 80.726562 103.5 80.789062 103.5 77.664062 Z M 103.5 77.660156 "/>
<path style=" stroke:none;fill-rule:nonzero;fill:rgb(100%,100%,100%);fill-opacity:1;" d="M 82.910156 63.101562 C 85.785156 63.101562 88.117188 60.769531 88.117188 57.898438 C 88.117188 55.023438 85.785156 52.699219 82.914062 52.699219 C 80.039062 52.699219 77.714844 55.023438 77.714844 57.898438 C 77.714844 60.769531 80.039062 63.101562 82.914062 63.101562 Z M 91.417969 66.976562 C 92.632812 66.976562 93.613281 65.992188 93.613281 64.78125 C 93.613281 63.566406 92.625 62.585938 91.417969 62.585938 C 90.203125 62.585938 89.214844 63.566406 89.214844 64.78125 C 89.214844 65.992188 90.203125 66.976562 91.410156 66.976562 Z M 91.417969 66.976562 "/>
<use xlink:href="#surface27" mask="url(#mask7)"/>
<path style=" stroke:none;fill-rule:nonzero;fill:rgb(100%,100%,100%);fill-opacity:1;" d="M 92.257812 33.714844 C 95.496094 33.714844 99.484375 35.277344 103.1875 37.996094 C 107.871094 41.40625 110.476562 44.40625 111.285156 47.535156 C 111.742188 49.328125 111.339844 51.355469 110.183594 52.855469 C 108.96875 54.421875 107.183594 55.28125 105.039062 55.28125 C 104.289062 55.28125 103.472656 55.164062 102.605469 54.941406 C 102.089844 56.269531 101.6875 57.601562 101.394531 58.867188 C 104.925781 64.246094 107.003906 70.726562 107.003906 77.660156 C 107.003906 96.574219 91.675781 111.894531 72.777344 111.894531 C 53.863281 111.894531 38.597656 96.574219 38.597656 77.664062 C 38.597656 58.753906 53.925781 43.433594 72.824219 43.433594 C 76.992188 43.433594 80.988281 44.183594 84.6875 45.574219 C 85.378906 45.226562 86.242188 44.753906 87.230469 44.183594 C 86.882812 43.664062 86.535156 43.136719 86.359375 42.621094 C 85.726562 41.058594 85.949219 38.632812 86.9375 36.777344 C 87.75 35.277344 88.964844 34.234375 90.464844 33.886719 C 90.988281 33.769531 91.621094 33.714844 92.257812 33.714844 Z M 92.257812 32.734375 C 91.566406 32.734375 90.871094 32.789062 90.238281 32.964844 C 88.5 33.375 87 34.527344 86.011719 36.375 C 84.921875 38.515625 84.628906 41.285156 85.378906 43.085938 C 85.492188 43.316406 85.609375 43.601562 85.785156 43.894531 C 85.378906 44.128906 84.96875 44.351562 84.566406 44.53125 C 80.746094 43.199219 76.820312 42.503906 72.769531 42.503906 C 68.03125 42.503906 63.402344 43.433594 59.066406 45.28125 C 54.84375 47.074219 51.089844 49.617188 47.851562 52.855469 C 44.613281 56.09375 42.066406 59.851562 40.28125 64.070312 C 38.425781 68.40625 37.5 73.035156 37.5 77.773438 C 37.5 82.519531 38.425781 87.144531 40.273438 91.480469 C 42.066406 95.707031 44.613281 99.457031 47.851562 102.703125 C 51.089844 105.941406 54.84375 108.484375 59.066406 110.269531 C 63.402344 112.125 68.03125 113.050781 72.769531 113.050781 C 77.515625 113.050781 82.136719 112.125 86.476562 110.277344 C 90.703125 108.484375 94.453125 105.941406 97.699219 102.703125 C 100.929688 99.464844 103.480469 95.699219 105.265625 91.480469 C 107.121094 87.144531 108.046875 82.519531 108.046875 77.773438 C 108.046875 71.011719 106.136719 64.480469 102.492188 58.8125 C 102.667969 57.941406 102.953125 57.074219 103.242188 56.210938 C 103.828125 56.324219 104.460938 56.378906 105.039062 56.378906 C 107.46875 56.378906 109.609375 55.398438 110.992188 53.550781 C 112.324219 51.8125 112.839844 49.390625 112.269531 47.359375 C 111.339844 44.011719 108.683594 40.828125 103.765625 37.300781 C 99.894531 34.351562 95.671875 32.734375 92.257812 32.734375 Z M 92.257812 32.734375 "/>
<use xlink:href="#surface30" mask="url(#mask8)"/>
<use xlink:href="#surface36" mask="url(#mask9)"/>
<use xlink:href="#surface39" mask="url(#mask11)"/>
<use xlink:href="#surface42" mask="url(#mask12)"/>
<use xlink:href="#surface48" mask="url(#mask13)"/>
<use xlink:href="#surface51" mask="url(#mask15)"/>
<use xlink:href="#surface54" mask="url(#mask16)"/>
<use xlink:href="#surface60" mask="url(#mask17)"/>
<use xlink:href="#surface63" mask="url(#mask19)"/>
<use xlink:href="#surface66" mask="url(#mask20)"/>
<use xlink:href="#surface72" mask="url(#mask21)"/>
<use xlink:href="#surface75" mask="url(#mask23)"/>
<use xlink:href="#surface78" mask="url(#mask24)"/>
<use xlink:href="#surface84" mask="url(#mask25)"/>
<use xlink:href="#surface87" mask="url(#mask27)"/>
<use xlink:href="#surface90" mask="url(#mask28)"/>
<use xlink:href="#surface96" mask="url(#mask29)"/>
<use xlink:href="#surface99" mask="url(#mask31)"/>
</g>
</svg>
